# Blender v3.1.2 OBJ File: 'inner_wall.blend'
# www.blender.org
mtllib inner_wall.mtl
o Cube
v 0.050000 8.000000 -10.000000
v 0.050000 0.000000 -10.000000
v 0.050000 8.000000 10.000000
v 0.050000 0.000000 10.000000
v -0.050000 8.000000 -10.000000
v -0.050000 0.000000 -10.000000
v -0.050000 8.000000 10.000000
v -0.050000 0.000000 10.000000
v -0.050000 5.000000 -2.000000
v -0.050000 0.000000 -2.000000
v -0.050000 0.000000 -6.000000
v -0.050000 5.000000 -6.000000
v 0.050000 5.000000 -2.000000
v 0.050000 5.000000 -6.000000
v 0.050000 0.000000 -2.000000
v 0.050000 0.000000 -6.000000
v -0.050000 3.500000 6.000000
v -0.050000 6.500000 6.000000
v -0.050000 3.500000 3.000000
v -0.050000 4.850000 3.000000
v -0.050000 6.500000 3.000000
v 0.050000 3.500000 6.000000
v 0.050000 6.500000 6.000000
v 0.050000 3.500000 3.000000
v 0.050000 5.150000 3.000000
v 0.050000 6.500000 3.000000
v -0.050000 4.850000 3.000000
v -0.050000 6.500000 7.000000
v -0.050000 3.500000 7.000000
v -0.050000 3.500000 4.800000
v 0.050000 6.500000 7.000000
v 0.050000 3.500000 7.000000
v 0.050000 5.150000 3.000000
v 0.050000 6.500000 4.800000
v 0.014706 6.500000 4.941176
v -0.014706 3.500000 4.941176
vt 0.875000 0.500000
vt 0.625000 0.750000
vt 0.625000 0.500000
vt 0.375000 1.000000
vt 0.375000 0.750000
vt 0.625000 0.250000
vt 0.531250 0.150000
vt 0.578125 0.087500
vt 0.375000 0.000000
vt 0.625000 0.000000
vt 0.484375 0.037500
vt 0.125000 0.600000
vt 0.375000 0.600000
vt 0.125000 0.500000
vt 0.375000 0.550000
vt 0.125000 0.550000
vt 0.484375 0.712500
vt 0.578125 0.662500
vt 0.531250 0.600000
vt 0.375000 0.500000
vt 0.375000 0.250000
vt 0.625000 0.387500
vt 0.375000 0.362500
vt 0.375000 0.387500
vt 0.625000 0.862500
vt 0.375000 0.887500
vt 0.625000 0.887500
vt 0.737500 0.500000
vt 0.762500 0.750000
vt 0.762500 0.500000
vt 0.512500 0.387500
vt 0.625000 0.362500
vt 0.487500 0.362500
vt 0.487500 0.362500
vt 0.375000 0.387500
vt 0.512500 0.387500
vt 0.237500 0.650000
vt 0.237500 0.750000
vt 0.246324 0.661765
vt 0.237500 0.500000
vt 0.737500 0.750000
vt 0.746324 0.661765
vt 0.737500 0.650000
vt 0.762500 0.750000
vt 0.375000 0.887500
vt 0.625000 0.862500
vt 0.375000 0.862500
vt 0.262500 0.687500
vt 0.237500 0.750000
vt 0.262500 0.750000
vt 0.737500 0.687500
vt 0.762500 0.750000
vt 0.762500 0.687500
vt 0.875000 0.750000
vt 0.625000 1.000000
vt 0.578125 0.050000
vt 0.531250 0.200000
vt 0.375000 0.200000
vt 0.526563 0.087500
vt 0.375000 0.150000
vt 0.484375 0.087500
vt 0.484375 0.065000
vt 0.578125 0.037500
vt 0.484375 0.050000
vt 0.526563 0.087500
vt 0.125000 0.750000
vt 0.578125 0.712500
vt 0.578125 0.700000
vt 0.484375 0.662500
vt 0.535937 0.662500
vt 0.484375 0.700000
vt 0.531250 0.550000
vt 0.578125 0.685000
vt 0.535937 0.662500
vt 0.625000 0.362500
vt 0.375000 0.862500
vt 0.737500 0.750000
vt 0.625000 0.387500
vt 0.375000 0.362500
vt 0.262500 0.750000
vt 0.262500 0.500000
vt 0.762500 0.500000
vt 0.737500 0.500000
vt 0.625000 0.887500
vt 0.237500 0.687500
vt 0.737500 0.750000
vn 0.0000 1.0000 0.0000
vn 0.0000 0.0000 1.0000
vn -1.0000 -0.0000 0.0000
vn 0.0000 -1.0000 0.0000
vn 1.0000 0.0000 0.0000
vn 0.0000 0.0000 -1.0000
usemtl Material
s off
f 5/1/1 3/2/1 1/3/1
f 3/2/2 8/4/2 4/5/2
f 5/6/3 9/7/3 21/8/3
f 8/9/3 7/10/3 29/11/3
f 4/5/4 10/12/4 15/13/4
f 6/14/4 16/15/4 11/16/4
f 3/2/5 4/5/5 32/17/5
f 1/3/5 26/18/5 13/19/5
f 5/6/6 2/20/6 6/21/6
f 14/22/2 11/23/2 16/24/2
f 13/25/6 10/26/6 9/27/6
f 14/28/4 9/29/4 12/30/4
f 33/31/2 21/32/2 20/33/2
f 27/34/2 24/35/2 25/36/2
f 30/37/1 17/38/1 36/39/1
f 19/40/1 30/37/1 36/39/1
f 23/41/4 35/42/4 34/43/4
f 35/42/4 23/41/4 18/44/4
f 29/45/6 31/46/6 32/47/6
f 22/48/1 29/49/1 32/50/1
f 23/51/4 28/52/4 18/53/4
f 5/1/1 7/54/1 3/2/1
f 3/2/2 7/55/2 8/4/2
f 18/56/3 7/10/3 21/8/3
f 7/10/3 5/6/3 21/8/3
f 5/6/3 6/21/3 12/57/3
f 6/21/3 11/58/3 12/57/3
f 9/7/3 20/59/3 21/8/3
f 5/6/3 12/57/3 9/7/3
f 9/7/3 10/60/3 19/61/3
f 10/60/3 8/9/3 30/62/3
f 19/61/3 10/60/3 30/62/3
f 7/10/3 18/56/3 28/63/3
f 29/11/3 17/64/3 8/9/3
f 17/64/3 30/62/3 8/9/3
f 7/10/3 28/63/3 29/11/3
f 27/65/2 20/59/2 9/7/2
f 19/61/3 27/65/3 9/7/3
f 4/5/4 8/66/4 10/12/4
f 6/14/4 2/20/4 16/15/4
f 31/67/5 23/68/5 3/2/5
f 4/5/5 15/13/5 24/69/5
f 15/13/5 13/19/5 24/69/5
f 13/19/5 25/70/5 24/69/5
f 24/69/5 22/71/5 4/5/5
f 22/71/5 32/17/5 4/5/5
f 31/67/5 3/2/5 32/17/5
f 14/72/5 16/15/5 2/20/5
f 1/3/5 3/2/5 26/18/5
f 3/2/5 23/68/5 34/73/5
f 34/73/5 26/18/5 3/2/5
f 14/72/5 2/20/5 1/3/5
f 33/74/2 25/70/2 13/19/2
f 26/18/5 33/74/5 13/19/5
f 13/19/5 14/72/5 1/3/5
f 5/6/6 1/3/6 2/20/6
f 14/22/2 12/75/2 11/23/2
f 13/25/6 15/76/6 10/26/6
f 14/28/4 13/77/4 9/29/4
f 33/31/2 26/78/2 21/32/2
f 20/33/2 27/34/2 33/31/2
f 27/34/2 19/79/2 24/35/2
f 25/36/2 33/31/2 27/34/2
f 36/39/1 17/38/1 22/80/1
f 22/80/1 24/81/1 36/39/1
f 24/81/1 19/40/1 36/39/1
f 18/44/4 21/82/4 35/42/4
f 21/82/4 26/83/4 35/42/4
f 26/83/4 34/43/4 35/42/4
f 29/45/6 28/84/6 31/46/6
f 22/48/1 17/85/1 29/49/1
f 23/51/4 31/86/4 28/52/4
